<svg xmlns="http://www.w3.org/2000/svg" xmlns:xlink="http://www.w3.org/1999/xlink" viewBox="0 0 72.831 72.831"><defs><radialGradient id="a" cx="0.391" cy="1.039" r="1.215" gradientUnits="objectBoundingBox"><stop offset="0" stop-color="#ffc200"/><stop offset="0.325" stop-color="#fe6804"/><stop offset="0.713" stop-color="#fd04a9"/><stop offset="1" stop-color="#8b0afa"/></radialGradient></defs><rect width="72.831" height="72.831" rx="36.416" transform="translate(0 0)" fill="url(#a)"/><path d="M1158.275-441.608c-.19-3.026-.353-5.794-2.456-8.8a11.2,11.2,0,0,0-6.375-4.4,20.507,20.507,0,0,0-4.086-.621c-3.079-.129-6.172-.161-9.26-.15-3.088-.011-6.181.021-9.26.15a20.506,20.506,0,0,0-4.086.621,11.2,11.2,0,0,0-6.375,4.4c-2.1,3.009-2.266,5.778-2.456,8.8-.161,2.573-.152,5.213-.1,7.787.048,2.652,0,5.252.064,7.9a33.578,33.578,0,0,0,.327,4.5,11.777,11.777,0,0,0,3.491,6.989,12.48,12.48,0,0,0,7.058,3.311,73.974,73.974,0,0,0,8.971.338h4.74a73.973,73.973,0,0,0,8.971-.338,12.479,12.479,0,0,0,7.058-3.311,11.777,11.777,0,0,0,3.491-6.989,33.6,33.6,0,0,0,.327-4.5c.069-2.652.016-5.252.064-7.9C1158.426-436.395,1158.436-439.035,1158.275-441.608Zm-3.645,14.167a28.638,28.638,0,0,1-.472,5.928,7.726,7.726,0,0,1-6.352,6.263,42.779,42.779,0,0,1-7.075.439h-9a42.78,42.78,0,0,1-7.075-.439,7.726,7.726,0,0,1-6.352-6.263,28.638,28.638,0,0,1-.472-5.928v-11.513a28.64,28.64,0,0,1,.472-5.928,7.726,7.726,0,0,1,6.352-6.262,42.783,42.783,0,0,1,7.075-.439h9a42.783,42.783,0,0,1,7.075.439,7.726,7.726,0,0,1,6.352,6.262,28.64,28.64,0,0,1,.472,5.928Zm-18.385-17.295a11.469,11.469,0,0,0-11.469,11.469,11.469,11.469,0,0,0,11.469,11.469,11.469,11.469,0,0,0,11.469-11.469A11.469,11.469,0,0,0,1136.244-444.736Zm-.079,18.972a7.424,7.424,0,0,1-7.424-7.424,7.424,7.424,0,0,1,7.424-7.424,7.424,7.424,0,0,1,7.424,7.424A7.424,7.424,0,0,1,1136.166-425.763Zm14.668-19.369a2.671,2.671,0,0,1-2.67,2.671,2.671,2.671,0,0,1-2.671-2.671,2.671,2.671,0,0,1,2.671-2.671A2.671,2.671,0,0,1,1150.833-445.132Z" transform="translate(-1099.683 469.597)" fill="#fff"/></svg>