<svg viewBox="0 0 40 29" fill="none" xmlns="http://www.w3.org/2000/svg">
    <path
        d="M9.09318 0.620117H38.1735C38.7011 0.620117 39.1046 1.02358 39.1046 1.55119V19.6449C39.1046 20.1726 38.7011 20.576 38.1735 20.576H9.09318C8.56557 20.576 8.16211 20.1726 8.16211 19.6449V1.55119C8.16211 1.02358 8.56557 0.620117 9.09318 0.620117Z"
        fill="#9DBE87" />
    <path
        d="M38.1732 21.1973H9.0928C8.2238 21.1973 7.54102 20.5145 7.54102 19.6455V1.55178C7.54102 0.682783 8.2238 0 9.0928 0H38.1732C39.0422 0 39.7249 0.682783 39.7249 1.55178V19.6455C39.7249 20.4835 39.0422 21.1973 38.1732 21.1973ZM9.0928 1.24142C8.90658 1.24142 8.78244 1.36557 8.78244 1.55178V19.6455C8.78244 19.8318 8.90658 19.9559 9.0928 19.9559H38.1732C38.3594 19.9559 38.4835 19.8318 38.4835 19.6455V1.55178C38.4835 1.36557 38.3594 1.24142 38.1732 1.24142H9.0928Z"
        fill="#131313" />
    <path
        d="M6.45451 3.25879H35.5659C36.0935 3.25879 36.497 3.66225 36.497 4.18986V22.2836C36.497 22.8112 36.0935 23.2147 35.5659 23.2147H6.45451C5.9269 23.2147 5.52344 22.8112 5.52344 22.2836V4.18986C5.52344 3.66225 5.9269 3.25879 6.45451 3.25879Z"
        fill="#9DBE87" />
    <path
        d="M35.5364 23.835H6.45608C5.58708 23.835 4.9043 23.1522 4.9043 22.2832V4.18948C4.9043 3.32048 5.58708 2.6377 6.45608 2.6377H35.5675C36.4365 2.6377 37.1193 3.32048 37.1193 4.18948V22.2832C37.0882 23.1212 36.4054 23.835 35.5364 23.835ZM6.45608 3.87912C6.26986 3.87912 6.14572 4.00326 6.14572 4.18948V22.2832C6.14572 22.4694 6.26986 22.5936 6.45608 22.5936H35.5675C35.7537 22.5936 35.8778 22.4694 35.8778 22.2832V4.18948C35.8778 4.00326 35.7537 3.87912 35.5675 3.87912H6.45608Z"
        fill="#131313" />
    <path
        d="M4.03458 5.83594H33.146C33.6736 5.83594 34.0771 6.2394 34.0771 6.76701V24.8608C34.0771 25.3884 33.6736 25.7918 33.146 25.7918H4.03458C3.50698 25.7918 3.10352 25.3884 3.10352 24.8608V6.76701C3.10352 6.27044 3.50698 5.83594 4.03458 5.83594Z"
        fill="#9DBE87" />
    <path
        d="M33.1476 26.4112H4.03616C3.16716 26.4112 2.48438 25.7284 2.48438 24.8594V6.76565C2.48438 5.89665 3.16716 5.21387 4.03616 5.21387H33.1476C34.0166 5.21387 34.6993 5.89665 34.6993 6.76565V24.8594C34.6993 25.6974 33.9855 26.4112 33.1476 26.4112ZM4.03616 6.45529C3.84994 6.45529 3.7258 6.57943 3.7258 6.76565V24.8594C3.7258 25.0456 3.84994 25.1698 4.03616 25.1698H33.1476C33.3338 25.1698 33.4579 25.0456 33.4579 24.8594V6.76565C33.4579 6.57943 33.3338 6.45529 33.1476 6.45529H4.03616Z"
        fill="#131313" />
    <path
        d="M1.55216 8.13086H30.6636C31.1912 8.13086 31.5946 8.53432 31.5946 9.06193V27.1557C31.5946 27.6833 31.1912 28.0868 30.6636 28.0868H1.55216C1.02456 28.0868 0.621094 27.6833 0.621094 27.1557V9.06193C0.621094 8.56536 1.02456 8.13086 1.55216 8.13086Z"
        fill="#9DBE87" />
    <path
        d="M30.6632 28.7081H1.55178C0.682783 28.7081 0 28.0253 0 27.1563V9.06252C0 8.19353 0.682783 7.51074 1.55178 7.51074H30.6632C31.5322 7.51074 32.215 8.19353 32.215 9.06252V27.1563C32.215 28.0253 31.5011 28.7081 30.6632 28.7081ZM1.55178 8.75217C1.36557 8.75217 1.24142 8.87631 1.24142 9.06252V27.1563C1.24142 27.3425 1.36557 27.4666 1.55178 27.4666H30.6632C30.8494 27.4666 30.9735 27.3425 30.9735 27.1563V9.06252C30.9735 8.87631 30.8494 8.75217 30.6632 8.75217H1.55178Z"
        fill="#131313" />
    <path
        d="M26.7525 25.2939H5.46203C5.46203 23.8352 4.25164 22.6248 2.79297 22.6248V13.2521C4.25164 13.2521 5.46203 12.0417 5.46203 10.583H26.7525C26.7525 12.0417 27.9628 13.2521 29.4215 13.2521V22.6248C27.9318 22.6248 26.7525 23.8352 26.7525 25.2939Z"
        fill="#D6F0C5" />
    <path
        d="M26.754 25.9142H5.4636C5.12221 25.9142 4.84289 25.6349 4.84289 25.2935C4.84289 24.1762 3.91182 23.2452 2.79454 23.2452C2.45315 23.2452 2.17383 22.9658 2.17383 22.6244V13.2517C2.17383 12.9103 2.45315 12.631 2.79454 12.631C3.91182 12.631 4.84289 11.6999 4.84289 10.5826C4.84289 10.2412 5.12221 9.96191 5.4636 9.96191H26.754C27.0954 9.96191 27.3747 10.2412 27.3747 10.5826C27.3747 11.6999 28.3058 12.631 29.4231 12.631C29.7645 12.631 30.0438 12.9103 30.0438 13.2517V22.6244C30.0438 22.9658 29.7645 23.2452 29.4231 23.2452C28.3058 23.2452 27.3747 24.1762 27.3747 25.2935C27.3747 25.6349 27.0954 25.9142 26.754 25.9142ZM6.02224 24.6728H26.1644C26.4126 23.3693 27.4678 22.3141 28.7713 22.0658V13.8103C27.4678 13.562 26.4126 12.5068 26.1644 11.2033H6.02224C5.77396 12.5068 4.71875 13.562 3.41525 13.8103V22.0348C4.71875 22.3141 5.77396 23.3693 6.02224 24.6728Z"
        fill="#131313" />
    <path
        d="M16.171 22.1593C15.1779 22.1593 14.1227 21.7869 13.3778 20.8248C13.1606 20.5455 13.2227 20.173 13.4709 19.9558C13.7503 19.7385 14.1227 19.8006 14.3399 20.0489C15.0848 21.011 16.2331 21.042 16.978 20.7937C17.5987 20.5765 17.9711 20.173 17.9711 19.7385C17.9711 19.3351 17.009 19.0557 16.171 18.8075C14.8675 18.404 13.2227 17.9385 13.2227 16.3867C13.2227 15.6418 13.6882 14.959 14.4951 14.5556C15.4883 14.059 17.1642 13.8728 18.747 15.0211C19.0263 15.2384 19.0884 15.6108 18.8711 15.8901C18.6539 16.1694 18.2815 16.2315 18.0021 16.0143C16.9469 15.2384 15.7676 15.2694 15.0538 15.6418C14.6813 15.828 14.433 16.1074 14.433 16.3867C14.433 16.9764 15.302 17.2557 16.4814 17.6281C17.7539 18.0005 19.1505 18.435 19.1505 19.7385C19.1505 20.7006 18.4366 21.5696 17.3194 21.9731C17.009 22.0662 16.5745 22.1593 16.171 22.1593Z"
        fill="#131313" />
    <path
        d="M16.107 15.3941C15.7656 15.3941 15.4863 15.1148 15.4863 14.7734V13.4078C15.4863 13.0664 15.7656 12.7871 16.107 12.7871C16.4484 12.7871 16.7278 13.0664 16.7278 13.4078V14.7734C16.7278 15.1458 16.4484 15.3941 16.107 15.3941Z"
        fill="#131313" />
    <path
        d="M16.107 23.3388C15.7656 23.3388 15.4863 23.0595 15.4863 22.7181V21.694C15.4863 21.3526 15.7656 21.0732 16.107 21.0732C16.4484 21.0732 16.7278 21.3526 16.7278 21.694V22.7181C16.7278 23.0595 16.4484 23.3388 16.107 23.3388Z"
        fill="#131313" />
    <path
        d="M6.85742 18.3114C6.85742 18.4622 6.88712 18.6115 6.94483 18.7508C7.00254 18.8902 7.08713 19.0168 7.19376 19.1234C7.30039 19.23 7.42698 19.3146 7.5663 19.3723C7.70562 19.43 7.85494 19.4597 8.00574 19.4597C8.15654 19.4597 8.30586 19.43 8.44518 19.3723C8.5845 19.3146 8.71109 19.23 8.81772 19.1234C8.92435 19.0168 9.00894 18.8902 9.06665 18.7508C9.12436 18.6115 9.15406 18.4622 9.15406 18.3114C9.15406 18.0068 9.03307 17.7148 8.81772 17.4994C8.60237 17.2841 8.31029 17.1631 8.00574 17.1631C7.70119 17.1631 7.40911 17.2841 7.19376 17.4994C6.9784 17.7148 6.85742 18.0068 6.85742 18.3114Z"
        fill="#AECD99" />
    <path
        d="M8.00731 20.0508C7.04521 20.0508 6.23828 19.2749 6.23828 18.2817C6.23828 17.2886 7.01417 16.5127 8.00731 16.5127C8.96941 16.5127 9.77634 17.2886 9.77634 18.2817C9.77634 19.2749 8.96941 20.0508 8.00731 20.0508ZM8.00731 17.7852C7.72799 17.7852 7.47971 18.0024 7.47971 18.3128C7.47971 18.6231 7.69695 18.8404 8.00731 18.8404C8.28663 18.8404 8.53492 18.6231 8.53492 18.3128C8.53492 18.0024 8.28663 17.7852 8.00731 17.7852Z"
        fill="#131313" />
    <path
        d="M23.123 18.3114C23.123 18.616 23.244 18.908 23.4594 19.1234C23.6747 19.3387 23.9668 19.4597 24.2714 19.4597C24.5759 19.4597 24.868 19.3387 25.0833 19.1234C25.2987 18.908 25.4197 18.616 25.4197 18.3114C25.4197 18.0068 25.2987 17.7148 25.0833 17.4994C24.868 17.2841 24.5759 17.1631 24.2714 17.1631C23.9668 17.1631 23.6747 17.2841 23.4594 17.4994C23.244 17.7148 23.123 18.0068 23.123 18.3114Z"
        fill="#AECD99" />
    <path
        d="M24.269 20.0508C23.3069 20.0508 22.5 19.2749 22.5 18.2817C22.5 17.2886 23.2759 16.5127 24.269 16.5127C25.2311 16.5127 26.0381 17.2886 26.0381 18.2817C26.0381 19.2749 25.2311 20.0508 24.269 20.0508ZM24.269 17.7852C23.9897 17.7852 23.7414 18.0024 23.7414 18.3128C23.7414 18.6231 23.9587 18.8404 24.269 18.8404C24.5794 18.8404 24.7966 18.6231 24.7966 18.3128C24.7966 18.0024 24.5483 17.7852 24.269 17.7852Z"
        fill="#131313" />
</svg>