<svg viewBox="0 0 40 43" fill="none" xmlns="http://www.w3.org/2000/svg">
    <path
        d="M33.7211 11.8152C31.1834 11.8152 29.1191 9.75092 29.1191 7.21327C29.1191 4.67561 31.1834 2.61133 33.7211 2.61133C36.2587 2.61133 38.323 4.67561 38.323 7.21327C38.323 9.75092 36.258 11.8152 33.7211 11.8152Z"
        fill="#FFE7E5" />
    <path
        d="M6.5492 11.8152C4.01155 11.8152 1.94727 9.75092 1.94727 7.21327C1.94727 4.67561 4.01155 2.61133 6.5492 2.61133C9.08686 2.61133 11.1511 4.67561 11.1511 7.21327C11.1511 9.75092 9.08677 11.8152 6.5492 11.8152Z"
        fill="#FFE7E5" />
    <path
        d="M20.1347 11.8144C17.1135 11.8144 14.6562 9.35714 14.6562 6.33592C14.6562 3.3147 17.1135 0.857422 20.1347 0.857422C23.156 0.857422 25.6132 3.3147 25.6132 6.33592C25.6132 9.35714 23.1552 11.8144 20.1347 11.8144Z"
        fill="#FFE7E5" />
    <path
        d="M17.0851 42.546L16.1342 30.589H12.4375L15.0078 16.458H25.5207L28.0903 30.589H24.3937L23.4426 42.546H17.0851Z"
        fill="#919CB0" />
    <path
        d="M3.95515 35.9908L3.19475 26.4377H0.242188L2.29483 15.1484H10.6922L12.7449 26.4377H9.79232L9.03269 35.9908H3.95515Z"
        fill="#BDC4D0" />
    <path
        d="M31.2102 35.9908L30.4505 26.4377H27.498L29.5506 15.1484H37.9473L40.0007 26.4377H37.0474L36.2877 35.9908H31.2102Z"
        fill="#BDC4D0" />
    <path
        d="M7.15859 12.7234C9.88221 12.7234 12.0906 10.515 12.0906 7.79141C12.0906 5.06779 9.88213 2.85938 7.15859 2.85938C4.43506 2.85938 2.22656 5.06779 2.22656 7.79141C2.22656 10.515 4.43426 12.7234 7.15859 12.7234ZM7.15859 4.50339C8.97182 4.50339 10.4466 5.97818 10.4466 7.79141C10.4466 9.60463 8.97174 11.0794 7.15859 11.0794C5.34544 11.0794 3.87057 9.60463 3.87057 7.79141C3.87057 5.97818 5.34536 4.50339 7.15859 4.50339Z"
        fill="#573A32" />
    <path
        d="M32.6137 12.7234C35.3373 12.7234 37.5457 10.515 37.5457 7.79141C37.5457 5.06779 35.3379 2.85938 32.6137 2.85938C29.8894 2.85938 27.6816 5.06779 27.6816 7.79141C27.6816 10.515 29.8901 12.7234 32.6137 12.7234ZM32.6137 4.50339C34.4269 4.50339 35.9017 5.97818 35.9017 7.79141C35.9017 9.60463 34.4269 11.0794 32.6137 11.0794C30.8004 11.0794 29.3256 9.60463 29.3256 7.79141C29.3256 5.97818 30.8012 4.50339 32.6137 4.50339Z"
        fill="#573A32" />
    <path
        d="M39.1659 24.7584L37.5219 15.7163C37.3794 14.9347 36.6991 14.3662 35.9046 14.3662H29.3285C28.5339 14.3662 27.853 14.9348 27.7113 15.7163L26.7652 20.9182L26.0303 16.8761C25.8521 15.8992 25.0007 15.1889 24.0082 15.1889H15.7881C14.7949 15.1889 13.944 15.8992 13.766 16.8761L13.02 20.9806L12.0631 15.7163C11.9206 14.9347 11.2403 14.3662 10.4458 14.3662H3.86975C3.07512 14.3662 2.39424 14.9348 2.25247 15.7163L0.608464 24.7584C0.521447 25.2379 0.651651 25.7318 0.963997 26.1058C1.27498 26.4805 1.73736 26.6969 2.2251 26.6969H3.27524L3.87393 34.2251C3.9424 35.08 4.65555 35.739 5.51312 35.739H8.80114C9.65879 35.739 10.3719 35.08 10.4397 34.2251L11.0384 26.6969H11.9801L11.7109 28.1793C11.602 28.7787 11.7644 29.3958 12.1548 29.8637C12.5453 30.3315 13.1234 30.6021 13.7324 30.6021H15.0455L15.7942 40.0127C15.8791 41.0806 16.7711 41.9039 17.843 41.9039H21.9531C23.0251 41.9039 23.917 41.0806 24.0012 40.012L24.75 30.6014H26.0631C26.6728 30.6014 27.2502 30.3308 27.6406 29.8629C28.0311 29.3951 28.1934 28.7779 28.0845 28.1785L27.8153 26.6968H28.7346L29.3333 34.225C29.4011 35.0799 30.1142 35.7389 30.9718 35.7389H34.2599C35.1175 35.7389 35.8306 35.0799 35.8984 34.225L36.4978 26.6968H37.548C38.0357 26.6968 38.4981 26.4803 38.8104 26.1064C39.1228 25.7324 39.2529 25.2386 39.1659 24.7584ZM9.52031 25.0529L8.80106 34.095H5.51304L4.79379 25.0529H2.22502L3.86903 16.0109H6.33504V20.9429C6.33504 21.3971 6.70286 21.7649 7.15705 21.7649C7.61124 21.7649 7.97905 21.3971 7.97905 20.9429V16.0109H10.4451L12.0891 25.0529H9.52031ZM22.8518 28.5464L21.9531 39.849H17.843L16.9443 28.5464H13.733L15.788 17.2439H18.8705V23.4089C18.8705 23.9768 19.3302 24.4364 19.898 24.4364C20.4659 24.4364 20.9256 23.9768 20.9256 23.4089V17.2439H24.0081L26.0631 28.5464H22.8518ZM34.9791 25.0529L34.2599 34.095H30.9718L30.2526 25.0529H27.6838L29.3278 16.0109H31.7938V20.9429C31.7938 21.3971 32.1617 21.7649 32.6158 21.7649C33.07 21.7649 33.4378 21.3971 33.4378 20.9429V16.0109H35.9039L37.5479 25.0529H34.9791Z"
        fill="#573A32" />
    <path
        d="M19.8994 13.1348C23.3046 13.1348 26.0645 10.3749 26.0645 6.96973C26.0645 3.56459 23.3046 0.804688 19.8994 0.804688C16.4943 0.804688 13.7344 3.56459 13.7344 6.96973C13.7344 10.3749 16.4942 13.1348 19.8994 13.1348ZM19.8994 2.8597C22.1654 2.8597 24.0094 4.70375 24.0094 6.96973C24.0094 9.2357 22.1654 11.0798 19.8994 11.0798C17.6334 11.0798 15.7894 9.2357 15.7894 6.96973C15.7894 4.70375 17.6327 2.8597 19.8994 2.8597Z"
        fill="#573A32" />
</svg>