<svg xmlns="http://www.w3.org/2000/svg" viewBox="0 0 72.831 72.831"><rect width="72.831" height="72.831" rx="36.416" transform="translate(0 0)" fill="#fffc01"/><g transform="translate(14.105 14.297)"><path d="M1912.929-407.86a11.236,11.236,0,0,1-6.653-2.131,9.128,9.128,0,0,0-5.08-1.57c-.093,0-.186,0-.278.005q-.227.009-.428.009c-2.108,0-3.106-.714-3.237-2.314,0-.038-.006-.076-.01-.113a.44.44,0,0,0-.214-.335c-.025-.008-.2-.052-.35-.09a19.339,19.339,0,0,1-2.55-.822c-1.029-.4-2.219-1.017-2.28-2.186a1.815,1.815,0,0,1,1.127-1.718l.143-.073a17.389,17.389,0,0,0,4.917-3.577,9.781,9.781,0,0,0,2.493-4.664,3.868,3.868,0,0,0-.63-.474c-.064-.042-.124-.081-.177-.117-.091-.061-.238-.152-.421-.267a22.263,22.263,0,0,1-2.662-1.862,2.721,2.721,0,0,1-.8-3.3,2.434,2.434,0,0,1,2.408-1.455h.073a9.209,9.209,0,0,1,2.689.719,46.507,46.507,0,0,1-.041-5.053l0-.036c1.227-10.075,10.692-10.366,11.767-10.366.086,0,.151,0,.193,0s.107,0,.193,0c1.075,0,10.541.291,11.768,10.366l0,.036a46.539,46.539,0,0,1-.041,5.053,9.21,9.21,0,0,1,2.689-.719h.073a2.428,2.428,0,0,1,2.4,1.43,2.731,2.731,0,0,1-.787,3.328,22.263,22.263,0,0,1-2.662,1.862c-.184.114-.33.205-.421.267-.052.036-.112.074-.177.116a3.886,3.886,0,0,0-.63.475,9.785,9.785,0,0,0,2.493,4.664,17.393,17.393,0,0,0,4.917,3.577l.143.073a1.814,1.814,0,0,1,1.126,1.718c-.062,1.169-1.251,1.783-2.28,2.186a19.328,19.328,0,0,1-2.55.822c-.153.039-.326.082-.377.1a.448.448,0,0,0-.187.322c0,.037-.007.075-.01.113-.131,1.6-1.129,2.314-3.237,2.314q-.2,0-.428-.009-.139-.005-.279-.005a9.126,9.126,0,0,0-5.08,1.57A11.252,11.252,0,0,1,1912.929-407.86Z" transform="translate(-1890.622 450.875)" fill="#fff"/><path d="M1909.532-452.023c1.36,0,9.468.376,10.554,9.291a55.161,55.161,0,0,1-.1,6.183s-.032.3.413.3a2.219,2.219,0,0,0,.7-.151,11.592,11.592,0,0,1,2.875-.891h.049a1.239,1.239,0,0,1,1.269.677,1.5,1.5,0,0,1-.458,1.936,27.89,27.89,0,0,1-2.967,2.039c-.424.286-1.352.8-1.352,1.5a10.348,10.348,0,0,0,2.818,5.593,18.9,18.9,0,0,0,5.4,3.912c.6.309.957.9-1.037,1.681s-2.68.773-3.058.988a1.66,1.66,0,0,0-.825,1.263c-.065.585.062,1.339-2.032,1.339-.12,0-.247,0-.382-.008q-.162-.006-.324-.006a10.313,10.313,0,0,0-5.853,1.845,10,10,0,0,1-5.889,1.856,9.965,9.965,0,0,1-5.88-1.856,10.316,10.316,0,0,0-5.853-1.845q-.162,0-.324.006-.2.008-.382.008c-2.094,0-1.967-.754-2.032-1.339a1.661,1.661,0,0,0-.825-1.263c-.378-.215-1.065-.206-3.059-.988s-1.632-1.372-1.037-1.681a18.9,18.9,0,0,0,5.4-3.912,10.348,10.348,0,0,0,2.818-5.593c0-.7-.928-1.211-1.352-1.5a27.852,27.852,0,0,1-2.967-2.039,1.5,1.5,0,0,1-.458-1.936,1.238,1.238,0,0,1,1.268-.677h.049a11.588,11.588,0,0,1,2.875.891,2.221,2.221,0,0,0,.7.151c.446,0,.413-.3.413-.3a55.117,55.117,0,0,1-.1-6.183c1.086-8.915,9.193-9.291,10.554-9.291.125,0,.193,0,.193,0s.068,0,.193,0m0-2.445-.193,0-.193,0a14.664,14.664,0,0,0-6.505,1.577c-2.568,1.331-5.777,4.122-6.476,9.864l0,.036,0,.036a34.3,34.3,0,0,0-.022,3.444,6.154,6.154,0,0,0-1.386-.221h-.1a3.675,3.675,0,0,0-3.527,2.185l0,.009a3.939,3.939,0,0,0,1.119,4.711,23.321,23.321,0,0,0,2.817,1.976c.167.1.3.186.383.242l.113.075a9.622,9.622,0,0,1-2.018,3.344,16.21,16.21,0,0,1-4.569,3.311l-.151.077a3.055,3.055,0,0,0-1.784,2.867c.111,2.105,2.326,2.975,3.055,3.26a20.754,20.754,0,0,0,2.415.8c.266,1.446,1.287,2.961,4.393,2.961.149,0,.307,0,.475-.009.077,0,.154,0,.231,0a8.016,8.016,0,0,1,4.309,1.295,12.343,12.343,0,0,0,7.426,2.406,12.356,12.356,0,0,0,7.434-2.406,8.016,8.016,0,0,1,4.308-1.295q.116,0,.231,0c.168.007.326.009.475.009,3.106,0,4.127-1.515,4.393-2.961a20.754,20.754,0,0,0,2.415-.8c.728-.286,2.944-1.155,3.055-3.26a3.055,3.055,0,0,0-1.784-2.867l-.151-.077a16.215,16.215,0,0,1-4.569-3.311,9.616,9.616,0,0,1-2.018-3.344l.113-.075c.083-.056.216-.138.383-.242a23.288,23.288,0,0,0,2.817-1.976,3.939,3.939,0,0,0,1.119-4.711l-.006-.015a3.672,3.672,0,0,0-3.524-2.179h-.1a6.161,6.161,0,0,0-1.385.221,34.311,34.311,0,0,0-.022-3.444l0-.036,0-.036c-.7-5.742-3.908-8.534-6.476-9.864a14.665,14.665,0,0,0-6.5-1.576Z" transform="translate(-1887.027 454.468)"/></g></svg>