<svg xmlns="http://www.w3.org/2000/svg" viewBox="0 0 72.831 72.831"><rect width="72.831" height="72.831" rx="36.416" transform="translate(0 0)"/><g transform="translate(16.716 14.105)"><path d="M2299.353-391.953l.017-1.732a13.713,13.713,0,0,0-1.846-.124,13.589,13.589,0,0,0-13.589,13.589,13.572,13.572,0,0,0,5.725,11.084,13.54,13.54,0,0,1-3.617-9.231A13.589,13.589,0,0,1,2299.353-391.953Z" transform="translate(-2283.934 409.399)" fill="#25f4ee"/><path d="M2331.063-418.045a6.149,6.149,0,0,0,6.149-6.149v-29.179h5.419a8.284,8.284,0,0,1-.145-1.853H2335.1v29.18a6.149,6.149,0,0,1-6.149,6.149,6.122,6.122,0,0,1-2.9-.724A6.14,6.14,0,0,0,2331.063-418.045Z" transform="translate(-2315.366 455.227)" fill="#25f4ee"/><path d="M2414.079-418.883v-1.562a11.232,11.232,0,0,1-5.7-1.839h0A10.819,10.819,0,0,0,2414.079-418.883Z" transform="translate(-2376.787 430.646)" fill="#25f4ee"/><path d="M2395.666-441.417a9.68,9.68,0,0,1-2.361-6.51h-1.963a9.6,9.6,0,0,0,2.217,4.658A10.314,10.314,0,0,0,2395.666-441.417Z" transform="translate(-2364.077 449.78)" fill="#fe2b54"/><path d="M2338.054-408.887v5.746a17.455,17.455,0,0,1-10.187-3.292l.074,14.963a13.589,13.589,0,0,1-13.589,13.589,13.527,13.527,0,0,1-7.865-2.506,13.552,13.552,0,0,0,9.972,4.359,13.589,13.589,0,0,0,13.589-13.589l-.073-14.962a17.454,17.454,0,0,0,10.187,3.292V-408.6A9.7,9.7,0,0,1,2338.054-408.887Z" transform="translate(-2300.762 420.65)" fill="#fe2b54"/><path d="M2319.394-380.922a6.149,6.149,0,0,0-6.149,6.149,6.147,6.147,0,0,0,3.253,5.425,6.12,6.12,0,0,1-1.145-3.572,6.149,6.149,0,0,1,6.149-6.149,6.15,6.15,0,0,1,1.773.259l.073-7.575a13.709,13.709,0,0,0-1.846-.124c-.093,0-.186,0-.278,0l-.056,5.843A6.147,6.147,0,0,0,2319.394-380.922Z" transform="translate(-2305.805 403.953)" fill="#fe2b54"/><path d="M2317.308-420.6l-.074-14.963a17.455,17.455,0,0,0,10.187,3.292v-5.746a10.819,10.819,0,0,1-5.7-3.4h0a10.314,10.314,0,0,1-2.107-1.852,9.6,9.6,0,0,1-2.217-4.658h-5.419v29.179a6.149,6.149,0,0,1-6.149,6.149,6.14,6.14,0,0,1-5-2.577,6.147,6.147,0,0,1-3.253-5.425,6.149,6.149,0,0,1,6.149-6.149,6.146,6.146,0,0,1,1.773.259l.056-5.843a13.589,13.589,0,0,0-13.311,13.586,13.54,13.54,0,0,0,3.617,9.231,13.527,13.527,0,0,0,7.865,2.506A13.589,13.589,0,0,0,2317.308-420.6Z" transform="translate(-2290.129 449.78)" fill="#fff"/></g></svg>