<svg xmlns="http://www.w3.org/2000/svg" viewBox="0 0 72.831 72.831"><rect width="72.831" height="72.831" rx="36.416" transform="translate(0 0)" fill="#41c351"/><g transform="translate(14.415 14.297)"><path d="M2689.935-407.048a19.909,19.909,0,0,1-10.139-2.761l-9.291,2.468,2.493-9.084a19.862,19.862,0,0,1-3.042-10.6,20,20,0,0,1,19.979-19.979,20,20,0,0,1,19.979,19.979A20,20,0,0,1,2689.935-407.048Z" transform="translate(-2667.806 448.9)" fill="#41c351"/><path d="M2683.617-450.679a18.085,18.085,0,0,1,18.085,18.085,18.085,18.085,0,0,1-18.085,18.085,18,18,0,0,1-9.836-2.907l-6.894,1.831,1.848-6.733a18,18,0,0,1-3.2-10.277,18.085,18.085,0,0,1,18.085-18.085m0-3.789a21.731,21.731,0,0,0-15.467,6.406,21.73,21.73,0,0,0-6.406,15.467,21.752,21.752,0,0,0,2.9,10.883l-1.406,5.124-1.744,6.357,6.371-1.692,5.36-1.424a21.807,21.807,0,0,0,10.4,2.626,21.73,21.73,0,0,0,15.467-6.406,21.731,21.731,0,0,0,6.407-15.467,21.731,21.731,0,0,0-6.407-15.467,21.73,21.73,0,0,0-15.467-6.406Z" transform="translate(-2661.488 454.468)" fill="#fff"/><path d="M2707.091-407.143a2.192,2.192,0,0,1,1.418-.624h1.08a1.212,1.212,0,0,1,1.143.854c.394.92,1.752,4.159,1.752,4.159a1.441,1.441,0,0,1-.263,1.421,10.562,10.562,0,0,1-1.194,1.44.819.819,0,0,0-.109,1.04,15.313,15.313,0,0,0,7.677,6.571.8.8,0,0,0,.783-.159l1.84-2.278a.9.9,0,0,1,1.21-.219l4.139,1.966s.559.285.635.471a5.054,5.054,0,0,1-.46,2.79,5.444,5.444,0,0,1-4.624,2.456,19,19,0,0,1-13-7.293s-3.963-4.6-3.959-8.065A6.1,6.1,0,0,1,2707.091-407.143Z" transform="translate(-2694.071 419.623)" fill="#fff"/></g></svg>